HIERARCHY
ROOT Hips
{
	OFFSET 0.00000 0.00000 0.00000
	CHANNELS 6 Xposition Yposition Zposition Zrotation Yrotation Xrotation 
	JOINT LHipJoint
	{
		OFFSET 0 0 0
		CHANNELS 3 Zrotation Yrotation Xrotation
		JOINT LeftUpLeg
		{
			OFFSET 1.81424 -1.42316 1.18090
			CHANNELS 3 Zrotation Yrotation Xrotation
			JOINT LeftLeg
			{
				OFFSET 2.15837 -5.93008 0.00000
				CHANNELS 3 Zrotation Yrotation Xrotation
				JOINT LeftFoot
				{
					OFFSET 2.51759 -6.91701 0.00000
					CHANNELS 3 Zrotation Yrotation Xrotation
					JOINT LeftToeBase
					{
						OFFSET 0.18318 -0.50327 1.95113
						CHANNELS 3 Zrotation Yrotation Xrotation
						End Site
						{
							OFFSET 0.00000 -0.00000 1.01524
						}
					}
				}
			}
		}
	}
	JOINT RHipJoint
	{
		OFFSET 0 0 0
		CHANNELS 3 Zrotation Yrotation Xrotation
		JOINT RightUpLeg
		{
			OFFSET -1.43917 -1.42316 1.18090
			CHANNELS 3 Zrotation Yrotation Xrotation
			JOINT RightLeg
			{
				OFFSET -2.25237 -6.18833 0.00000
				CHANNELS 3 Zrotation Yrotation Xrotation
				JOINT RightFoot
				{
					OFFSET -2.46496 -6.77243 0.00000
					CHANNELS 3 Zrotation Yrotation Xrotation
					JOINT RightToeBase
					{
						OFFSET -0.26285 -0.72219 1.76148
						CHANNELS 3 Zrotation Yrotation Xrotation
						End Site
						{
							OFFSET -0.00000 -0.00000 0.95109
						}
					}
				}
			}
		}
	}
	JOINT LowerBack
	{
		OFFSET 0 0 0
		CHANNELS 3 Zrotation Yrotation Xrotation
		JOINT Spine
		{
			OFFSET -0.08725 1.93754 -0.28890
			CHANNELS 3 Zrotation Yrotation Xrotation
			JOINT Spine1
			{
				OFFSET 0.01195 1.94849 0.05967
				CHANNELS 3 Zrotation Yrotation Xrotation
				JOINT Neck
				{
					OFFSET 0 0 0
					CHANNELS 3 Zrotation Yrotation Xrotation
					JOINT Neck1
					{
						OFFSET 0.02762 1.60124 0.34160
						CHANNELS 3 Zrotation Yrotation Xrotation
						JOINT Head
						{
							OFFSET -0.04785 1.66713 -0.24070
							CHANNELS 3 Zrotation Yrotation Xrotation
							End Site
							{
								OFFSET -0.02188 1.68591 -0.11959
							}
						}
					}
				}
				JOINT LeftShoulder
				{
					OFFSET 0 0 0
					CHANNELS 3 Zrotation Yrotation Xrotation
					JOINT LeftArm
					{
						OFFSET 2.59610 1.78696 -0.28854
						CHANNELS 3 Zrotation Yrotation Xrotation
						JOINT LeftForeArm
						{
							OFFSET 5.17853 -0.00000 0.00000
							CHANNELS 3 Zrotation Yrotation Xrotation
							JOINT LeftHand
							{
								OFFSET 3.40399 -0.00000 -0.00000
								CHANNELS 3 Zrotation Yrotation Xrotation
								JOINT LeftFingerBase
								{
									OFFSET 0 0 0
									CHANNELS 3 Zrotation Yrotation Xrotation
									JOINT LeftHandIndex1
									{
										OFFSET 0.70896 -0.00000 -0.00000
										CHANNELS 3 Zrotation Yrotation Xrotation
										End Site
										{
											OFFSET 0.57159 -0.00000 -0.00000
										}
									}
								}
								JOINT LThumb
								{
									OFFSET 0 0 0
									CHANNELS 3 Zrotation Yrotation Xrotation
									End Site
									{
										OFFSET 0.58031 -0.00000 0.58031
									}
								}
							}
						}
					}
				}
				JOINT RightShoulder
				{
					OFFSET 0 0 0
					CHANNELS 3 Zrotation Yrotation Xrotation
					JOINT RightArm
					{
						OFFSET -2.87749 1.55486 -0.73085
						CHANNELS 3 Zrotation Yrotation Xrotation
						JOINT RightForeArm
						{
							OFFSET -5.42351 -0.00000 -0.00000
							CHANNELS 3 Zrotation Yrotation Xrotation
							JOINT RightHand
							{
								OFFSET -3.42066 -0.00000 -0.00000
								CHANNELS 3 Zrotation Yrotation Xrotation
								JOINT RightFingerBase
								{
									OFFSET 0 0 0
									CHANNELS 3 Zrotation Yrotation Xrotation
									JOINT RightHandIndex1
									{
										OFFSET -0.74361 -0.00000 -0.00000
										CHANNELS 3 Zrotation Yrotation Xrotation
										End Site
										{
											OFFSET -0.59952 -0.00000 -0.00000
										}
									}
								}
								JOINT RThumb
								{
									OFFSET 0 0 0
									CHANNELS 3 Zrotation Yrotation Xrotation
									End Site
									{
										OFFSET -0.60867 -0.00000 0.60867
									}
								}
							}
						}
					}
				}
			}
		}
	}
}
MOTION
Frames: 9
Frame Time: .0083333
2.6725 5.0591 -4.2691 54.9811 79.3775 15.5312 0.0000 0.0000 0.0000 13.3932 54.8919 -82.8613 36.3238 11.7166 145.2632 -13.3505 -56.0502 1.0495 0.3686 3.8998 10.7950 0.0000 0.0000 0.0000 18.3892 -8.2623 -86.7730 -20.6796 -19.9889 91.9875 -0.1546 -1.4837 -8.1268 -0.0088 -0.6052 1.6632 -7.8557 2.5570 32.9122 -2.7148 2.2608 13.2299 0.5790 1.6109 -2.3271 4.6511 -0.2159 -7.6206 0.4089 -0.1226 33.0102 -0.5820 1.0111 12.1008 -0.0000 -0.0000 0.0000 -71.7453 -3.0937 13.6531 0.6694 -1.1593 -0.0068 -0.0000 0.0000 -10.6440 14.9984 -23.5368 -6.1069 -7.1250 0.0000 -0.0000 -8.7772 5.9457 7.9165 -0.0000 -0.0000 0.0000 93.0736 -8.4409 16.8598 -6.3723 10.8817 -0.6076 0.0000 -0.0000 -28.4920 -27.6576 24.2729 -12.1577 7.1250 -0.0000 -0.0000 1.0472 -3.0020 0.9911
2.6822 5.0775 -4.2408 57.0741 79.0199 17.2957 0.0000 0.0000 0.0000 13.6070 54.2128 -81.5729 36.2616 11.8039 144.9583 -12.8266 -55.7005 -0.1286 0.2899 3.4627 9.5698 0.0000 0.0000 0.0000 17.8360 -8.1689 -86.5173 -20.8127 -19.9842 92.3767 -0.1598 -1.3264 -8.1585 -0.0097 -0.6359 1.7474 -8.1378 2.6380 33.1481 -2.8851 2.2943 13.3935 0.5312 1.6368 -2.2242 4.5995 -0.8167 -8.1181 0.1670 -0.9848 32.9338 -0.7738 0.5769 12.1466 0.0000 -0.0000 0.0000 -71.2141 -4.0005 13.7372 0.5349 -0.9264 -0.0043 -0.0000 0.0000 -10.2066 13.2740 -21.5015 -4.9419 -7.1250 0.0000 -0.0000 -9.7654 8.2028 8.3983 0.0000 -0.0000 0.0000 93.2591 -8.1900 17.5070 -6.4636 11.0332 -0.6249 0.0000 -0.0000 -29.2149 -28.0428 23.9687 -12.2100 7.1250 -0.0000 -0.0000 0.7684 -3.2470 0.7238
2.7018 5.0910 -4.2134 57.7158 78.9690 17.9218 0.0000 0.0000 0.0000 13.9126 53.6788 -81.0877 36.2399 11.8341 144.8524 -12.7220 -55.6054 -0.2989 0.2789 3.3968 9.3854 0.0000 0.0000 0.0000 17.6975 -8.1085 -86.6538 -20.9617 -19.9778 92.8127 -0.1598 -1.1965 -8.0869 -0.0013 -0.2340 0.6428 -8.1332 2.5406 32.9954 -2.9026 2.1862 13.4229 0.5522 1.5793 -2.1313 4.8045 -0.3821 -8.3408 0.4650 -0.4659 33.5202 -0.6277 0.8988 12.4563 -0.0000 0.0000 0.0000 -70.8266 -4.4331 13.7442 0.5058 -0.8761 -0.0039 -0.0000 0.0000 -9.4396 11.7780 -19.9793 -4.0751 -7.1250 0.0000 -0.0000 -10.6797 9.8828 8.8475 -0.0000 0.0000 0.0000 93.2659 -8.0780 17.8403 -6.3704 10.8785 -0.6072 0.0000 -0.0000 -29.4283 -28.2044 24.0000 -12.3052 7.1250 -0.0000 -0.0000 0.6743 -3.1779 0.6359
2.7220 5.1034 -4.1877 56.7485 79.0626 17.0978 0.0000 0.0000 0.0000 14.5658 53.5028 -80.8741 36.2331 11.8436 144.8190 -12.9489 -55.8453 -0.0251 0.2793 3.3988 9.3912 0.0000 0.0000 0.0000 17.8620 -7.9932 -86.8992 -21.1167 -19.9701 93.2666 -0.1666 -0.9003 -8.0931 -0.0005 -0.1495 0.4107 -7.6960 2.3794 32.7292 -2.8815 2.1443 13.5075 0.3750 1.5672 -1.9474 4.9539 -0.5034 -8.6213 0.4488 -0.6931 33.6904 -0.6887 0.8199 12.5816 0.0000 -0.0000 0.0000 -70.3638 -5.0684 13.8815 0.5091 -0.8817 -0.0039 -0.0000 0.0000 -8.4238 10.4329 -18.8206 -3.3994 -7.1250 0.0000 -0.0000 -11.5361 11.1594 9.2802 0.0000 -0.0000 0.0000 93.4215 -7.7778 17.5874 -6.2359 10.6551 -0.5821 0.0000 -0.0000 -29.1084 -28.0508 24.1739 -12.3093 7.1250 -0.0000 -0.0000 0.7933 -3.0233 0.7504
2.7437 5.1172 -4.1641 56.8890 78.9115 17.1791 0.0000 0.0000 0.0000 15.2942 53.5189 -79.9998 36.2121 11.8727 144.7170 -13.2768 -56.1424 0.4872 0.3183 3.6266 10.0284 0.0000 0.0000 0.0000 17.6913 -7.8311 -86.8765 -21.2703 -19.9613 93.7164 -0.1781 -0.5410 -8.1865 -0.0010 -0.2041 0.5606 -8.5664 2.3787 32.6794 -2.2866 1.7625 12.8938 1.5498 1.2978 -2.5881 4.0089 -0.3980 -6.7741 0.1727 -0.0619 33.7553 -0.5450 0.9740 12.2276 0.0000 0.0000 0.0000 -71.2997 -3.6713 13.3102 0.7209 -1.2485 -0.0079 -0.0000 0.0000 -7.1835 9.5060 -18.2170 -2.9966 -7.1250 0.0000 -0.0000 -12.1391 11.8341 9.6153 0.0000 0.0000 0.0000 92.0080 -9.3717 19.9147 -6.4396 10.9933 -0.6203 0.0000 -0.0000 -30.0105 -28.0717 23.8259 -12.1578 7.1250 -0.0000 -0.0000 0.7303 -3.3951 0.6859
2.7644 5.1326 -4.1423 59.7589 78.5652 19.8158 0.0000 0.0000 0.0000 15.3045 53.1553 -78.8394 36.1629 11.9404 144.4785 -13.4586 -56.0710 1.4374 0.4163 4.1416 11.4753 0.0000 0.0000 0.0000 16.9197 -7.7853 -86.8109 -21.4487 -19.9496 94.2390 -0.1889 -0.1688 -8.2719 -0.0004 -0.1323 0.3636 -8.5067 2.4573 32.7044 -2.7041 1.9402 13.2019 1.0346 1.4182 -2.2569 4.0266 -1.3669 -7.6454 0.1784 -1.6029 33.4915 -0.7399 0.2638 12.2634 -0.0000 -0.0000 0.0000 -70.1941 -4.9193 13.8874 0.8250 -1.4286 -0.0103 -0.0000 0.0000 -5.9010 8.7865 -18.2022 -2.7642 -7.1250 0.0000 -0.0000 -12.6060 11.9055 9.9849 -0.0000 -0.0000 0.0000 92.8755 -8.6335 18.1224 -6.2830 10.7334 -0.5908 0.0000 -0.0000 -28.6556 -28.4526 23.6302 -12.2545 7.1250 -0.0000 -0.0000 0.4690 -3.5245 0.4393
2.7786 5.1490 -4.1224 61.7889 78.2612 21.6349 0.0000 0.0000 0.0000 15.3510 52.7554 -77.8603 36.1093 12.0135 144.2202 -13.5110 -55.9703 1.9513 0.4275 4.1960 11.6287 0.0000 0.0000 0.0000 16.2599 -7.7059 -86.8084 -21.6478 -19.9348 94.8228 -0.1983 0.2368 -8.3292 -0.0012 0.2200 -0.6045 -8.9828 2.4927 32.7653 -2.6820 1.8399 13.2106 1.3321 1.3509 -2.2553 4.5407 -0.7001 -7.8125 0.0190 -0.6543 34.0392 -0.7715 0.7577 12.5502 -0.0000 -0.0000 0.0000 -69.8550 -4.9412 13.8146 1.2372 -2.1417 -0.0231 -0.0000 0.0000 -4.9095 8.3003 -18.3575 -2.6307 -7.1250 0.0000 -0.0000 -12.9185 11.7902 10.2775 -0.0000 -0.0000 0.0000 92.7066 -8.4625 17.3278 -6.0859 10.4054 -0.5547 0.0000 -0.0000 -27.6499 -28.6857 23.7459 -12.4255 7.1250 -0.0000 -0.0000 0.3432 -3.3477 0.3225
2.7913 5.1673 -4.1052 61.6457 78.0459 21.3951 0.0000 0.0000 0.0000 16.0107 52.6949 -76.9870 36.0743 12.0609 144.0522 -13.6283 -56.0974 2.0692 0.3704 3.9090 10.8209 0.0000 0.0000 0.0000 16.0415 -7.4998 -86.9003 -21.8614 -19.9167 95.4495 -0.1967 0.4708 -8.2230 -0.0139 0.7600 -2.0888 -8.9812 2.4273 32.5493 -2.5961 1.7856 13.2873 1.4484 1.3108 -2.0933 4.5972 -0.3562 -7.7928 -0.0004 -0.1299 34.3181 -0.7206 1.0093 12.6797 -0.0000 -0.0000 0.0000 -69.5190 -5.0822 13.7264 1.6273 -2.8159 -0.0400 -0.0000 0.0000 -4.3395 8.0200 -18.9021 -2.6134 -7.1250 0.0000 -0.0000 -13.0908 11.2776 10.5646 -0.0000 -0.0000 0.0000 92.5188 -8.4740 17.3740 -6.0817 10.3983 -0.5539 0.0000 -0.0000 -27.6845 -29.1590 23.7976 -12.6877 7.1250 -0.0000 -0.0000 0.0615 -3.1860 0.0580
2.8043 5.1891 -4.0907 61.6424 77.7783 21.2301 0.0000 0.0000 0.0000 16.7187 52.7811 -75.9002 36.0327 12.1168 143.8537 -13.7861 -56.3047 2.1139 0.3378 3.7350 10.3322 0.0000 0.0000 0.0000 15.7817 -7.3528 -86.8960 -22.0798 -19.8960 96.0911 -0.2061 0.7734 -8.3354 -0.0034 0.3777 -1.0379 -8.8372 2.4248 32.4833 -2.5902 1.8474 13.3840 1.3663 1.3453 -1.9713 4.5300 -0.4651 -8.0091 0.0333 -0.2898 34.5902 -0.7146 0.9452 12.8377 -0.0000 0.0000 0.0000 -68.9911 -5.6213 13.8980 1.8965 -3.2806 -0.0543 -0.0000 0.0000 -4.0171 8.2390 -19.8699 -2.8175 -7.1250 0.0000 -0.0000 -12.9399 10.3115 10.6985 -0.0000 0.0000 0.0000 92.5806 -8.6082 17.5270 -6.2348 10.6532 -0.5819 0.0000 -0.0000 -28.2138 -29.6978 23.8688 -12.9955 7.1250 -0.0000 -0.0000 -0.2563 -2.9858 -0.2426
